<?xml version="1.0" encoding="UTF-8" standalone="no"?>
<!DOCTYPE svg PUBLIC "-//W3C//DTD SVG 1.1//EN"
 "http://www.w3.org/Graphics/SVG/1.1/DTD/svg11.dtd">
<!-- Generated by graphviz version 2.40.1 (20161225.0304)
 -->
<!-- Title: %3 Pages: 1 -->
<svg width="623pt" height="208pt"
 viewBox="0.00 0.00 623.00 208.00" xmlns="http://www.w3.org/2000/svg" xmlns:xlink="http://www.w3.org/1999/xlink">
<g id="graph0" class="graph" transform="scale(1 1) rotate(0) translate(4 204)">
<title>%3</title>
<polygon fill="#ffffff" stroke="transparent" points="-4,4 -4,-204 619,-204 619,4 -4,4"/>
<!-- x -->
<g id="node1" class="node">
<title>x</title>
<text text-anchor="middle" x="27" y="-179.8" font-family="Times,serif" font-size="9.00" fill="#000000">x</text>
</g>
<!-- z -->
<g id="node4" class="node">
<title>z</title>
<polygon fill="none" stroke="#000000" points="167,-146 91,-146 91,-110 167,-110 167,-146"/>
<text text-anchor="start" x="91" y="-126.8" font-family="Times,serif" font-size="9.00" fill="#000000">Z</text>
<text text-anchor="start" x="97" y="-126.8" font-family="Times,serif" baseline-shift="super" font-size="9.00" fill="#000000">[1]</text>
<text text-anchor="start" x="106" y="-126.8" font-family="Times,serif" font-size="9.00" fill="#000000"> &#160;= W</text>
<text text-anchor="start" x="127" y="-126.8" font-family="Times,serif" baseline-shift="super" font-size="9.00" fill="#000000">[1]</text>
<text text-anchor="start" x="136" y="-126.8" font-family="Times,serif" font-size="9.00" fill="#000000"> x + b</text>
<text text-anchor="start" x="158" y="-126.8" font-family="Times,serif" baseline-shift="super" font-size="9.00" fill="#000000">[1]</text>
</g>
<!-- x&#45;&gt;z -->
<g id="edge1" class="edge">
<title>x&#45;&gt;z</title>
<path fill="none" stroke="#000000" d="M54.0663,-167.6708C65.1122,-161.8229 78.0953,-154.9496 90.1233,-148.5818"/>
<polygon fill="#000000" stroke="#000000" points="91.2558,-149.9624 94.856,-146.0762 89.6182,-146.8691 91.2558,-149.9624"/>
</g>
<!-- w -->
<g id="node2" class="node">
<title>w</title>
<text text-anchor="start" x="18" y="-126.8" font-family="Times,serif" font-size="9.00" fill="#000000">W</text>
<text text-anchor="start" x="27" y="-126.8" font-family="Times,serif" baseline-shift="super" font-size="9.00" fill="#000000">[1]</text>
</g>
<!-- w&#45;&gt;z -->
<g id="edge2" class="edge">
<title>w&#45;&gt;z</title>
<path fill="none" stroke="#000000" d="M54.0663,-128C63.7031,-128 74.8144,-128 85.4795,-128"/>
<polygon fill="#000000" stroke="#000000" points="85.6709,-129.7501 90.6709,-128 85.6709,-126.2501 85.6709,-129.7501"/>
</g>
<!-- b -->
<g id="node3" class="node">
<title>b</title>
<text text-anchor="start" x="20" y="-72.8" font-family="Times,serif" font-size="9.00" fill="#000000">b</text>
<text text-anchor="start" x="25" y="-72.8" font-family="Times,serif" baseline-shift="super" font-size="9.00" fill="#000000">[1]</text>
</g>
<!-- b&#45;&gt;z -->
<g id="edge3" class="edge">
<title>b&#45;&gt;z</title>
<path fill="none" stroke="#000000" d="M54.0663,-88.3292C65.1122,-94.1771 78.0953,-101.0504 90.1233,-107.4182"/>
<polygon fill="#000000" stroke="#000000" points="89.6182,-109.1309 94.856,-109.9238 91.2558,-106.0376 89.6182,-109.1309"/>
</g>
<!-- a -->
<g id="node10" class="node">
<title>a</title>
<polygon fill="none" stroke="#000000" points="258,-146 204,-146 204,-110 258,-110 258,-146"/>
<text text-anchor="middle" x="231" y="-125.8" font-family="Times,serif" font-size="9.00" fill="#000000">a[1] = g(z[1])</text>
</g>
<!-- z&#45;&gt;a -->
<g id="edge4" class="edge">
<title>z&#45;&gt;a</title>
<path fill="none" stroke="#000000" d="M167.2712,-128C177.6691,-128 188.821,-128 198.8432,-128"/>
<polygon fill="#000000" stroke="#000000" points="198.9713,-129.7501 203.9713,-128 198.9712,-126.2501 198.9713,-129.7501"/>
</g>
<!-- h -->
<g id="node5" class="node">
<title>h</title>
<polygon fill="none" stroke="#000000" points="397,-92 318,-92 318,-56 397,-56 397,-92"/>
<text text-anchor="middle" x="357.5" y="-71.8" font-family="Times,serif" font-size="9.00" fill="#000000">z[2] = W2 a[1] + b[2]</text>
</g>
<!-- y -->
<g id="node6" class="node">
<title>y</title>
<polygon fill="none" stroke="#000000" points="506,-92 452,-92 452,-56 506,-56 506,-92"/>
<text text-anchor="middle" x="479" y="-71.8" font-family="Times,serif" font-size="9.00" fill="#000000">a[2] = g(z[2])</text>
</g>
<!-- h&#45;&gt;y -->
<g id="edge6" class="edge">
<title>h&#45;&gt;y</title>
<path fill="none" stroke="#000000" d="M397.2836,-74C413.3259,-74 431.5914,-74 446.779,-74"/>
<polygon fill="#000000" stroke="#000000" points="446.804,-75.7501 451.8039,-74 446.8039,-72.2501 446.804,-75.7501"/>
</g>
<!-- j -->
<g id="node8" class="node">
<title>j</title>
<text text-anchor="start" x="222" y="-72.8" font-family="Times,serif" font-size="9.00" fill="#000000">W</text>
<text text-anchor="start" x="231" y="-72.8" font-family="Times,serif" baseline-shift="super" font-size="9.00" fill="#000000">[2]</text>
</g>
<!-- h&#45;&gt;j -->
<g id="edge13" class="edge">
<title>h&#45;&gt;j</title>
<path fill="none" stroke="#ff0000" d="M317.9192,-74C300.3046,-74 279.828,-74 263.1753,-74"/>
<polygon fill="#ff0000" stroke="#ff0000" points="263.1375,-72.2501 258.1374,-74 263.1374,-75.7501 263.1375,-72.2501"/>
<text text-anchor="middle" x="288" y="-76.8" font-family="Times,serif" font-size="9.00" fill="#ff0000">dW[2]</text>
</g>
<!-- k -->
<g id="node9" class="node">
<title>k</title>
<text text-anchor="start" x="224" y="-16.8" font-family="Times,serif" font-size="9.00" fill="#000000">b</text>
<text text-anchor="start" x="229" y="-16.8" font-family="Times,serif" baseline-shift="super" font-size="9.00" fill="#000000">[2]</text>
</g>
<!-- h&#45;&gt;k -->
<g id="edge12" class="edge">
<title>h&#45;&gt;k</title>
<path fill="none" stroke="#ff0000" d="M341.7832,-55.9223C331.1606,-45.0014 316.1641,-31.8995 300,-25 288.5661,-20.1195 275.1312,-18.0372 263.1693,-17.2897"/>
<polygon fill="#ff0000" stroke="#ff0000" points="263.2217,-15.5403 258.1431,-17.0469 263.0528,-19.0363 263.2217,-15.5403"/>
<text text-anchor="middle" x="288" y="-27.8" font-family="Times,serif" font-size="9.00" fill="#ff0000">db[2]</text>
</g>
<!-- y&#45;&gt;h -->
<g id="edge11" class="edge">
<title>y:s&#45;&gt;h:s</title>
<path fill="none" stroke="#ff0000" d="M479,-56C479,-3.793 365.4344,-2.0595 357.8929,-50.7997"/>
<polygon fill="#ff0000" stroke="#ff0000" points="356.1318,-50.8823 357.5,-56 359.6219,-51.1461 356.1318,-50.8823"/>
<text text-anchor="middle" x="424.5" y="-18.8" font-family="Times,serif" font-size="9.00" fill="#ff0000">dz[2]</text>
</g>
<!-- l -->
<g id="node7" class="node">
<title>l</title>
<polygon fill="none" stroke="#000000" points="615,-92 561,-92 561,-56 615,-56 615,-92"/>
<text text-anchor="middle" x="588" y="-71.8" font-family="Times,serif" font-size="9.00" fill="#000000">L(a[2], y)</text>
</g>
<!-- y&#45;&gt;l -->
<g id="edge7" class="edge">
<title>y&#45;&gt;l</title>
<path fill="none" stroke="#000000" d="M506.2241,-74C521.1804,-74 539.8291,-74 555.5395,-74"/>
<polygon fill="#000000" stroke="#000000" points="555.7452,-75.7501 560.7452,-74 555.7451,-72.2501 555.7452,-75.7501"/>
</g>
<!-- l&#45;&gt;y -->
<g id="edge10" class="edge">
<title>l:s&#45;&gt;y:s</title>
<path fill="none" stroke="#ff0000" d="M588,-56C588,-9.3533 486.9397,-7.6223 479.4392,-50.8069"/>
<polygon fill="#ff0000" stroke="#ff0000" points="477.6777,-50.8703 479,-56 481.1652,-51.1653 477.6777,-50.8703"/>
<text text-anchor="middle" x="533.5" y="-21.8" font-family="Times,serif" font-size="9.00" fill="#ff0000">da[2]</text>
</g>
<!-- j&#45;&gt;h -->
<g id="edge8" class="edge">
<title>j&#45;&gt;h</title>
<path fill="none" stroke="#000000" d="M258.4136,-81.8059C264.1762,-83.1345 270.2509,-84.3075 276,-85 287.9071,-86.4342 300.775,-85.7429 312.6911,-84.1665"/>
<polygon fill="#000000" stroke="#000000" points="313.0346,-85.8852 317.7341,-83.4403 312.5357,-82.4209 313.0346,-85.8852"/>
</g>
<!-- k&#45;&gt;h -->
<g id="edge9" class="edge">
<title>k&#45;&gt;h</title>
<path fill="none" stroke="#000000" d="M258.1374,-30.0134C274.1996,-37.1239 294.9344,-46.303 313.3041,-54.435"/>
<polygon fill="#000000" stroke="#000000" points="312.6387,-56.0542 317.9192,-56.4781 314.0555,-52.8538 312.6387,-56.0542"/>
</g>
<!-- a&#45;&gt;h -->
<g id="edge5" class="edge">
<title>a&#45;&gt;h</title>
<path fill="none" stroke="#000000" d="M258.233,-116.6446C270.9402,-111.3229 286.2597,-104.8742 300,-99 304.2632,-97.1774 308.6996,-95.2692 313.1334,-93.3544"/>
<polygon fill="#000000" stroke="#000000" points="314.0407,-94.8687 317.9353,-91.2777 312.6514,-91.6562 314.0407,-94.8687"/>
</g>
</g>
</svg>
